<?xml version="1.0" encoding="UTF-8"?><svg id="Blue" xmlns="http://www.w3.org/2000/svg" viewBox="0 0 500 500"><defs><style>.cls-1{fill:#181a43;stroke-width:0px;}</style></defs><path class="cls-1" d="M230.57,111.04c-.4-.11-.82-.02-1.14.23-.32.25-.51.63-.51,1.04v26.68c0,2.3,1.56,4.31,3.79,4.89l193.24,49.79c7.51,1.93,15.37-.07,21.1-5.5,4.59-4.35,6.94-10.56,6.94-16.88v-30.09c0-10.58-5.77-20.31-15.05-25.39L235.29,4.42c-10.83-5.93-23.58-5.89-34.33.06-11.65,6.45-18.44,19.16-18.44,32.47v62.94s-106.01-26.21-106.01-26.21c-15.51-3.83-30.5,7.9-30.5,23.88v307.13c0,16.26,15.31,28.16,31.07,24.15l105.77-26.9c.5-.13.99.25.99.77v61.92c0,26.96,29,43.97,52.53,30.82l205.26-113.38c6.81-3.81,11.04-11,11.04-18.81v-32.49c0-13.79-12.99-23.89-26.36-20.5l-239.61,60.82-2.87.72h0s-108.83,27.64-108.83,27.64V102.99l105.69,26.05c1.07.26,1.82,1.22,1.82,2.32v221.13c0,.41.19.79.51,1.04.23.18.52.28.81.28.11,0,.21-.01.32-.04l28.2-7.05c.59-.15,1-.67,1-1.28V35.54c0-1.8.93-3.42,2.48-4.34,1.56-.91,3.42-.94,5-.06l200,111.14c1.43.79,2.31,2.3,2.31,3.93v13.27c0,.82-.77,1.42-1.56,1.21l-191.02-49.66ZM424.7,355.64c0,2.83-1.53,5.44-4,6.82l-196.64,108.78c-5.38,3.01-12.02-.88-12.02-7.05v-67.89c0-1.04.71-1.96,1.72-2.21l210.93-53.65v15.21Z"/></svg>